<?xml version="1.0" encoding="UTF-8"?>
<svg width="25px" height="24px" viewBox="0 0 25 24" version="1.1" xmlns="http://www.w3.org/2000/svg" xmlns:xlink="http://www.w3.org/1999/xlink">
    <!-- Generator: Sketch 45.2 (43514) - http://www.bohemiancoding.com/sketch -->
    <title>profile_on</title>
    <desc>Created with Sketch.</desc>
    <defs></defs>
    <g id="Symbols" stroke="none" stroke-width="1" fill="none" fill-rule="evenodd">
        <g id="profile_on" fill="#FFFFFF">
            <g id="login">
                <path d="M12.4589491,13.3401639 L12.4589491,13.3401639 C8.76436782,13.3401639 5.76765189,10.3278689 5.76765189,6.65983607 C5.76765189,2.99180328 8.76436782,0 12.4589491,0 C16.1535304,0 19.1502463,2.97131148 19.1502463,6.65983607 C19.1502463,10.3483607 16.1535304,13.3401639 12.4589491,13.3401639 Z M0.882594417,23.7704918 L0.882594417,23.7704918 C0.38998358,23.7704918 -2.73453947e-16,23.3811475 0,22.8893443 C0,18.2581967 3.77668309,14.5081967 8.39490969,14.5081967 L16.6050903,14.5081967 C21.2438424,14.5081967 25,18.2786885 25,22.8893443 C25,23.3811475 24.6100164,23.7704918 24.1174056,23.7704918 L0.882594417,23.7704918 Z" id="profile"></path>
            </g>
        </g>
    </g>
</svg>